M48
; DRILL file {KiCad 8.0.2} date 2024-05-20T18:28:41+0200
; FORMAT={-:-/ absolute / metric / decimal}
; #@! TF.CreationDate,2024-05-20T18:28:41+02:00
; #@! TF.GenerationSoftware,Kicad,Pcbnew,8.0.2
; #@! TF.FileFunction,Plated,1,2,PTH
FMAT,2
METRIC
; #@! TA.AperFunction,Plated,PTH,ViaDrill
T1C0.400
; #@! TA.AperFunction,Plated,PTH,ComponentDrill
T2C0.800
; #@! TA.AperFunction,Plated,PTH,ComponentDrill
T3C0.900
; #@! TA.AperFunction,Plated,PTH,ComponentDrill
T4C0.920
; #@! TA.AperFunction,Plated,PTH,ComponentDrill
T5C1.000
; #@! TA.AperFunction,Plated,PTH,ComponentDrill
T6C1.100
; #@! TA.AperFunction,Plated,PTH,ComponentDrill
T7C2.300
; #@! TA.AperFunction,Plated,PTH,ComponentDrill
T8C3.200
%
G90
G05
T1
X162.91Y-29.0
X165.1Y-124.0
X167.102Y-57.737
X172.0Y-28.5
X172.008Y-68.992
X172.35Y-89.0
X172.62Y-26.88
X173.0Y-68.5
X173.4Y-89.0
X174.0Y-68.0
X174.45Y-89.0
X174.5Y-29.35
X174.742Y-67.258
X175.5Y-89.0
X179.972Y-57.65
X183.5Y-82.645
X185.35Y-65.9
X186.4Y-65.9
X192.0Y-83.0
X196.7Y-121.3
X196.7Y-122.6
X199.29Y-126.5
X199.5Y-118.955
X201.8Y-78.5
X202.5Y-85.935
X202.6Y-73.4
X206.0Y-125.935
X206.631Y-126.869
X207.2Y-86.4
X207.5Y-29.5
X207.5Y-78.5
X208.0Y-63.6
X208.9Y-58.796
X209.25Y-86.4
X209.7Y-56.24
X213.5Y-65.75
X213.5Y-66.8
X213.6Y-72.5
X214.5Y-78.955
X215.0Y-51.21
X215.375Y-127.125
X215.5Y-27.5
X215.5Y-29.71
X215.5Y-48.21
X215.5Y-73.875
X217.0Y-52.71
X219.0Y-50.0
X222.5Y-65.25
X223.5Y-46.32
X225.5Y-92.0
X226.0Y-47.71
X226.5Y-97.0
X227.0Y-73.0
X228.351Y-126.3
X229.0Y-72.5
X230.0Y-128.0
X230.45Y-72.0
X230.5Y-28.5
X230.5Y-92.5
X230.578Y-94.578
X230.726Y-128.846
X231.0Y-46.71
X231.5Y-128.0
X232.3Y-128.9
X233.0Y-34.5
X233.099Y-32.599
X233.5Y-61.0
X234.0Y-73.0
X237.787Y-47.57
X238.5Y-45.5
X239.0Y-114.0
X241.0Y-106.0
X245.0Y-23.5
X247.75Y-69.75
X248.0Y-50.0
X251.5Y-81.0
X254.0Y-101.0
X254.25Y-64.22
X254.3Y-96.5
X254.5Y-26.0
X255.0Y-50.0
X255.0Y-57.5
X255.5Y-77.71
X256.55Y-77.71
X257.0Y-26.0
X257.0Y-66.5
X258.5Y-59.8
X259.65Y-31.477
X259.65Y-32.56
X267.921Y-81.005
X268.0Y-51.5
X268.977Y-81.0
X269.129Y-79.961
T2
X153.652Y-110.81
X153.67Y-107.75
X153.75Y-71.75
X153.75Y-74.75
X153.75Y-77.75
X153.75Y-80.75
X153.75Y-83.75
X160.5Y-127.34
X160.5Y-137.5
X161.62Y-24.56
X161.62Y-32.18
X163.352Y-39.887
X163.352Y-42.427
X163.352Y-44.967
X163.352Y-47.507
X163.352Y-50.047
X163.352Y-52.587
X163.352Y-55.127
X163.352Y-57.667
X163.352Y-60.207
X163.352Y-62.747
X163.5Y-127.34
X163.5Y-137.5
X163.812Y-110.81
X163.83Y-107.75
X163.91Y-71.75
X163.91Y-74.75
X163.91Y-77.75
X163.91Y-80.75
X163.91Y-83.75
X164.16Y-24.56
X164.16Y-32.18
X165.0Y-36.5
X166.7Y-24.56
X166.7Y-32.18
X166.875Y-75.775
X166.875Y-78.315
X166.875Y-80.855
X166.875Y-83.395
X166.875Y-85.935
X166.875Y-88.475
X166.875Y-91.015
X166.875Y-93.555
X166.875Y-96.095
X166.875Y-98.635
X166.875Y-101.175
X166.875Y-103.715
X166.875Y-106.255
X166.875Y-108.795
X166.875Y-111.335
X166.875Y-113.875
X166.875Y-116.415
X166.875Y-118.955
X166.875Y-121.495
X166.875Y-124.035
X169.24Y-24.56
X169.24Y-32.18
X170.0Y-36.5
X170.972Y-39.887
X170.972Y-42.427
X170.972Y-44.967
X170.972Y-47.507
X170.972Y-50.047
X170.972Y-52.587
X170.972Y-55.127
X170.972Y-57.667
X170.972Y-60.207
X170.972Y-62.747
X171.78Y-24.56
X171.78Y-32.18
X172.0Y-111.0
X174.32Y-24.56
X174.32Y-32.18
X175.267Y-39.8
X175.267Y-42.34
X175.267Y-44.88
X175.267Y-47.42
X175.267Y-49.96
X175.267Y-52.5
X175.267Y-55.04
X175.267Y-57.58
X175.267Y-60.12
X175.267Y-62.66
X176.5Y-36.5
X176.86Y-24.56
X176.86Y-32.18
X177.0Y-111.0
X179.4Y-24.56
X179.4Y-32.18
X181.5Y-36.5
X182.115Y-75.775
X182.115Y-78.315
X182.115Y-80.855
X182.115Y-83.395
X182.115Y-85.935
X182.115Y-88.475
X182.115Y-91.015
X182.115Y-93.555
X182.115Y-96.095
X182.115Y-98.635
X182.115Y-101.175
X182.115Y-103.715
X182.115Y-106.255
X182.115Y-108.795
X182.115Y-111.335
X182.115Y-113.875
X182.115Y-116.415
X182.115Y-118.955
X182.115Y-121.495
X182.115Y-124.035
X182.887Y-39.8
X182.887Y-42.34
X182.887Y-44.88
X182.887Y-47.42
X182.887Y-49.96
X182.887Y-52.5
X182.887Y-55.04
X182.887Y-57.58
X182.887Y-60.12
X182.887Y-62.66
X184.0Y-26.0
X184.0Y-31.0
X189.76Y-24.61
X189.76Y-27.15
X189.76Y-29.69
X189.76Y-32.23
X189.76Y-34.77
X189.76Y-37.31
X189.76Y-39.85
X189.76Y-42.39
X189.76Y-44.93
X189.76Y-47.47
X189.76Y-50.01
X189.76Y-52.55
X189.76Y-55.09
X189.76Y-57.63
X189.76Y-60.17
X189.76Y-62.71
X189.76Y-75.775
X189.76Y-78.315
X189.76Y-80.855
X189.76Y-83.395
X189.76Y-85.935
X189.76Y-88.475
X189.76Y-91.015
X189.76Y-93.555
X189.76Y-96.095
X189.76Y-98.635
X189.76Y-101.175
X189.76Y-103.715
X189.76Y-106.255
X189.76Y-108.795
X189.76Y-111.335
X189.76Y-113.875
X189.76Y-116.415
X189.76Y-118.955
X189.76Y-121.495
X189.76Y-124.035
X192.6Y-111.0
X194.302Y-27.226
X197.6Y-111.0
X199.302Y-27.226
X205.0Y-24.61
X205.0Y-27.15
X205.0Y-29.69
X205.0Y-32.23
X205.0Y-34.77
X205.0Y-37.31
X205.0Y-39.85
X205.0Y-42.39
X205.0Y-44.93
X205.0Y-47.47
X205.0Y-50.01
X205.0Y-52.55
X205.0Y-55.09
X205.0Y-57.63
X205.0Y-60.17
X205.0Y-62.71
X205.0Y-75.775
X205.0Y-78.315
X205.0Y-80.855
X205.0Y-83.395
X205.0Y-85.935
X205.0Y-88.475
X205.0Y-91.015
X205.0Y-93.555
X205.0Y-96.095
X205.0Y-98.635
X205.0Y-101.175
X205.0Y-103.715
X205.0Y-106.255
X205.0Y-108.795
X205.0Y-111.335
X205.0Y-113.875
X205.0Y-116.415
X205.0Y-118.955
X205.0Y-121.495
X205.0Y-124.035
X212.76Y-24.61
X212.76Y-27.15
X212.76Y-29.69
X212.76Y-32.23
X212.76Y-34.77
X212.76Y-37.31
X212.76Y-39.85
X212.76Y-42.39
X212.76Y-44.93
X212.76Y-47.47
X212.76Y-50.01
X212.76Y-52.55
X212.76Y-55.09
X212.76Y-57.63
X212.76Y-60.17
X212.76Y-62.71
X212.76Y-75.775
X212.76Y-78.315
X212.76Y-80.855
X212.76Y-83.395
X212.76Y-85.935
X212.76Y-88.475
X212.76Y-91.015
X212.76Y-93.555
X212.76Y-96.095
X212.76Y-98.635
X212.76Y-101.175
X212.76Y-103.715
X212.76Y-106.255
X212.76Y-108.795
X212.76Y-111.335
X212.76Y-113.875
X212.76Y-116.415
X212.76Y-118.955
X212.76Y-121.495
X212.76Y-124.035
X215.34Y-68.0
X215.34Y-71.0
X218.0Y-27.21
X218.0Y-97.5
X223.0Y-27.21
X223.0Y-97.5
X225.5Y-68.0
X225.5Y-71.0
X228.0Y-24.61
X228.0Y-27.15
X228.0Y-29.69
X228.0Y-32.23
X228.0Y-34.77
X228.0Y-37.31
X228.0Y-39.85
X228.0Y-42.39
X228.0Y-44.93
X228.0Y-47.47
X228.0Y-50.01
X228.0Y-52.55
X228.0Y-55.09
X228.0Y-57.63
X228.0Y-60.17
X228.0Y-62.71
X228.0Y-75.775
X228.0Y-78.315
X228.0Y-80.855
X228.0Y-83.395
X228.0Y-85.935
X228.0Y-88.475
X228.0Y-91.015
X228.0Y-93.555
X228.0Y-96.095
X228.0Y-98.635
X228.0Y-101.175
X228.0Y-103.715
X228.0Y-106.255
X228.0Y-108.795
X228.0Y-111.335
X228.0Y-113.875
X228.0Y-116.415
X228.0Y-118.955
X228.0Y-121.495
X228.0Y-124.035
X235.76Y-24.61
X235.76Y-27.15
X235.76Y-29.69
X235.76Y-32.23
X235.76Y-34.77
X235.76Y-37.31
X235.76Y-39.85
X235.76Y-42.39
X235.76Y-44.93
X235.76Y-47.47
X235.76Y-50.01
X235.76Y-52.55
X235.76Y-55.09
X235.76Y-57.63
X235.76Y-60.17
X235.76Y-62.71
X235.76Y-65.25
X235.76Y-67.79
X235.76Y-70.33
X235.76Y-72.87
X235.76Y-90.975
X235.76Y-93.515
X235.76Y-96.055
X235.76Y-98.595
X235.76Y-101.135
X235.76Y-103.675
X235.76Y-106.215
X235.76Y-108.755
X235.76Y-111.295
X235.76Y-113.835
X235.76Y-116.375
X235.76Y-118.915
X235.76Y-121.455
X235.76Y-123.995
X235.81Y-78.5
X235.81Y-86.12
X238.35Y-78.5
X238.35Y-86.12
X240.5Y-52.71
X240.89Y-78.5
X240.89Y-86.12
X241.0Y-101.0
X243.43Y-78.5
X243.43Y-86.12
X245.5Y-52.71
X245.97Y-78.5
X245.97Y-86.12
X246.0Y-101.0
X248.51Y-78.5
X248.51Y-86.12
X251.0Y-24.61
X251.0Y-27.15
X251.0Y-29.69
X251.0Y-32.23
X251.0Y-34.77
X251.0Y-37.31
X251.0Y-39.85
X251.0Y-42.39
X251.0Y-44.93
X251.0Y-47.47
X251.0Y-50.01
X251.0Y-52.55
X251.0Y-55.09
X251.0Y-57.63
X251.0Y-60.17
X251.0Y-62.71
X251.0Y-65.25
X251.0Y-67.79
X251.0Y-70.33
X251.0Y-72.87
X251.0Y-90.975
X251.0Y-93.515
X251.0Y-96.055
X251.0Y-98.595
X251.0Y-101.135
X251.0Y-103.675
X251.0Y-106.215
X251.0Y-108.755
X251.0Y-111.295
X251.0Y-113.835
X251.0Y-116.375
X251.0Y-118.915
X251.0Y-121.455
X251.0Y-123.995
X251.05Y-78.5
X251.05Y-86.12
X254.0Y-79.5
X254.0Y-84.5
X255.64Y-63.0
X255.64Y-73.16
X257.69Y-118.69
X257.69Y-126.31
X257.92Y-83.0
X257.92Y-86.0
X257.92Y-89.0
X259.38Y-95.46
X259.38Y-98.0
X259.38Y-100.54
X259.38Y-103.08
X259.38Y-105.62
X259.38Y-108.16
X259.38Y-110.7
X260.5Y-114.0
X261.0Y-92.0
X265.31Y-118.69
X265.31Y-126.31
X265.5Y-114.0
X266.0Y-92.0
X267.0Y-95.46
X267.0Y-98.0
X267.0Y-100.54
X267.0Y-103.08
X267.0Y-105.62
X267.0Y-108.16
X267.0Y-110.7
X268.08Y-83.0
X268.08Y-86.0
X268.08Y-89.0
T3
X154.235Y-127.5
X154.265Y-41.5
X154.265Y-48.0
X154.265Y-54.5
X154.265Y-61.0
X156.775Y-127.5
X156.805Y-41.5
X156.805Y-48.0
X156.805Y-54.5
X156.805Y-61.0
T4
X172.0Y-129.8
X172.0Y-133.0
X174.5Y-129.8
X174.5Y-133.0
T5
X186.0Y-133.0
X186.0Y-135.54
X188.54Y-133.0
X188.54Y-135.54
X191.08Y-133.0
X191.08Y-135.54
X193.62Y-133.0
X193.62Y-135.54
X196.16Y-133.0
X196.16Y-135.54
X198.7Y-133.0
X198.7Y-135.54
X201.24Y-133.0
X201.24Y-135.54
X203.78Y-133.0
X203.78Y-135.54
X206.32Y-133.0
X206.32Y-135.54
X208.86Y-133.0
X208.86Y-135.54
X209.0Y-106.235
X209.0Y-108.775
X211.4Y-133.0
X211.4Y-135.54
X213.94Y-133.0
X213.94Y-135.54
X216.48Y-133.0
X216.48Y-135.54
X219.02Y-133.0
X219.02Y-135.54
X221.56Y-133.0
X221.56Y-135.54
X224.1Y-133.0
X224.1Y-135.54
X226.64Y-133.0
X226.64Y-135.54
X229.18Y-133.0
X229.18Y-135.54
X231.72Y-133.0
X231.72Y-135.54
X232.0Y-106.225
X232.0Y-108.765
X234.26Y-133.0
X234.26Y-135.54
X236.8Y-133.0
X236.8Y-135.54
X239.34Y-133.0
X239.34Y-135.54
X241.88Y-133.0
X241.88Y-135.54
X244.42Y-133.0
X244.42Y-135.54
X248.0Y-135.54
X250.54Y-135.54
X253.08Y-135.54
X255.62Y-135.54
X258.16Y-135.54
X260.7Y-135.54
X264.04Y-30.0
X264.04Y-32.54
X264.04Y-35.08
X264.04Y-37.62
X264.04Y-40.16
X264.04Y-42.7
X264.04Y-45.24
X264.04Y-47.78
X264.04Y-50.32
X264.04Y-52.86
X264.04Y-55.4
X264.04Y-57.94
X264.04Y-60.48
X264.04Y-63.02
X264.04Y-65.56
X264.04Y-68.1
X264.04Y-70.64
X264.04Y-73.18
X264.04Y-75.72
X264.04Y-78.26
X266.58Y-30.0
X266.58Y-32.54
X266.58Y-35.08
X266.58Y-37.62
X266.58Y-40.16
X266.58Y-42.7
X266.58Y-45.24
X266.58Y-47.78
X266.58Y-50.32
X266.58Y-52.86
X266.58Y-55.4
X266.58Y-57.94
X266.58Y-60.48
X266.58Y-63.02
X266.58Y-65.56
X266.58Y-68.1
X266.58Y-70.64
X266.58Y-73.18
X266.58Y-75.72
X266.58Y-78.26
T6
X154.25Y-87.5
X154.25Y-94.0
X154.25Y-97.5
X154.25Y-104.0
X155.945Y-115.46
X155.945Y-118.0
X155.945Y-120.54
X158.75Y-87.5
X158.75Y-94.0
X158.75Y-97.5
X158.75Y-104.0
X161.445Y-115.46
X161.445Y-118.0
X161.445Y-120.54
T7
X167.23Y-132.51
X179.27Y-132.51
T8
X155.0Y-24.0
X155.0Y-136.0
X209.0Y-70.0
X267.0Y-24.0
X267.0Y-136.0
M30
