%TF.GenerationSoftware,KiCad,Pcbnew,6.0.0*%
%TF.CreationDate,2022-01-05T13:28:49+01:00*%
%TF.ProjectId,glycon,676c7963-6f6e-42e6-9b69-6361645f7063,rev?*%
%TF.SameCoordinates,Original*%
%TF.FileFunction,Copper,L3,Inr*%
%TF.FilePolarity,Positive*%
%FSLAX46Y46*%
G04 Gerber Fmt 4.6, Leading zero omitted, Abs format (unit mm)*
G04 Created by KiCad (PCBNEW 6.0.0) date 2022-01-05 13:28:49*
%MOMM*%
%LPD*%
G01*
G04 APERTURE LIST*
%TA.AperFunction,ComponentPad*%
%ADD10C,1.400000*%
%TD*%
%TA.AperFunction,ComponentPad*%
%ADD11O,1.400000X1.400000*%
%TD*%
%TA.AperFunction,ComponentPad*%
%ADD12R,1.600000X1.600000*%
%TD*%
%TA.AperFunction,ComponentPad*%
%ADD13O,1.600000X1.600000*%
%TD*%
%TA.AperFunction,ComponentPad*%
%ADD14C,1.600000*%
%TD*%
%TA.AperFunction,ComponentPad*%
%ADD15C,2.000000*%
%TD*%
%TA.AperFunction,ComponentPad*%
%ADD16C,4.000000*%
%TD*%
%TA.AperFunction,ComponentPad*%
%ADD17R,1.000000X1.000000*%
%TD*%
%TA.AperFunction,ComponentPad*%
%ADD18O,1.000000X1.000000*%
%TD*%
%TA.AperFunction,Conductor*%
%ADD19C,0.300000*%
%TD*%
G04 APERTURE END LIST*
D10*
%TO.N,Net-(R2-Pad1)*%
%TO.C,R2*%
X95250000Y-132080000D03*
D11*
%TO.N,Earth*%
X95250000Y-127000000D03*
%TD*%
D10*
%TO.N,Net-(R4-Pad1)*%
%TO.C,R4*%
X100330000Y-132080000D03*
D11*
%TO.N,Earth*%
X100330000Y-127000000D03*
%TD*%
D12*
%TO.N,unconnected-(U1-Pad1)*%
%TO.C,U1*%
X104140000Y-73660000D03*
D13*
%TO.N,VCC*%
X104140000Y-76200000D03*
%TO.N,/A14*%
X104140000Y-78740000D03*
%TO.N,/A12*%
X104140000Y-81280000D03*
%TO.N,/A7*%
X104140000Y-83820000D03*
%TO.N,/A6*%
X104140000Y-86360000D03*
%TO.N,/A5*%
X104140000Y-88900000D03*
%TO.N,/A4*%
X104140000Y-91440000D03*
%TO.N,/A3*%
X104140000Y-93980000D03*
%TO.N,/A2*%
X104140000Y-96520000D03*
%TO.N,/A1*%
X104140000Y-99060000D03*
%TO.N,/A0*%
X104140000Y-101600000D03*
%TO.N,/D0*%
X104140000Y-104140000D03*
%TO.N,/D1*%
X104140000Y-106680000D03*
%TO.N,/D2*%
X104140000Y-109220000D03*
%TO.N,Earth*%
X104140000Y-111760000D03*
%TO.N,/D3*%
X119380000Y-111760000D03*
%TO.N,/D4*%
X119380000Y-109220000D03*
%TO.N,/D5*%
X119380000Y-106680000D03*
%TO.N,/D6*%
X119380000Y-104140000D03*
%TO.N,/D7*%
X119380000Y-101600000D03*
%TO.N,Earth*%
X119380000Y-99060000D03*
%TO.N,/A10*%
X119380000Y-96520000D03*
%TO.N,Net-(U1-Pad24)*%
X119380000Y-93980000D03*
%TO.N,/A11*%
X119380000Y-91440000D03*
%TO.N,/A9*%
X119380000Y-88900000D03*
%TO.N,/A8*%
X119380000Y-86360000D03*
%TO.N,/A13*%
X119380000Y-83820000D03*
%TO.N,Net-(U1-Pad29)*%
X119380000Y-81280000D03*
%TO.N,Net-(J1-Pad34)*%
X119380000Y-78740000D03*
%TO.N,VCC*%
X119380000Y-76200000D03*
X119380000Y-73660000D03*
%TD*%
D12*
%TO.N,unconnected-(X1-Pad1)*%
%TO.C,X1*%
X69850000Y-142230000D03*
D14*
%TO.N,Earth*%
X85090000Y-142230000D03*
%TO.N,Net-(U0-Pad6)*%
X85090000Y-134610000D03*
%TO.N,VCC*%
X69850000Y-134610000D03*
%TD*%
D15*
%TO.N,Earth*%
%TO.C,SW1*%
X50090000Y-120940000D03*
X56590000Y-120940000D03*
%TO.N,Net-(R1-Pad2)*%
X56590000Y-125440000D03*
X50090000Y-125440000D03*
%TD*%
D12*
%TO.N,VCC*%
%TO.C,J2*%
X50362500Y-137180000D03*
D14*
%TO.N,unconnected-(J2-Pad2)*%
X50362500Y-139680000D03*
%TO.N,unconnected-(J2-Pad3)*%
X52362500Y-139680000D03*
%TO.N,Earth*%
X52362500Y-137180000D03*
D16*
X55222500Y-132430000D03*
X55222500Y-144430000D03*
%TD*%
D17*
%TO.N,/ROM WE*%
%TO.C,J1*%
X50800000Y-73660000D03*
D18*
%TO.N,VCC*%
X52070000Y-73660000D03*
%TO.N,unconnected-(J1-Pad3)*%
X50800000Y-74930000D03*
%TO.N,/A14*%
X52070000Y-74930000D03*
%TO.N,unconnected-(J1-Pad5)*%
X50800000Y-76200000D03*
%TO.N,/A13*%
X52070000Y-76200000D03*
%TO.N,unconnected-(J1-Pad7)*%
X50800000Y-77470000D03*
%TO.N,/A12*%
X52070000Y-77470000D03*
%TO.N,unconnected-(J1-Pad9)*%
X50800000Y-78740000D03*
%TO.N,/A11*%
X52070000Y-78740000D03*
%TO.N,unconnected-(J1-Pad11)*%
X50800000Y-80010000D03*
%TO.N,/A10*%
X52070000Y-80010000D03*
%TO.N,unconnected-(J1-Pad13)*%
X50800000Y-81280000D03*
%TO.N,/A9*%
X52070000Y-81280000D03*
%TO.N,unconnected-(J1-Pad15)*%
X50800000Y-82550000D03*
%TO.N,/A8*%
X52070000Y-82550000D03*
%TO.N,unconnected-(J1-Pad17)*%
X50800000Y-83820000D03*
%TO.N,/A7*%
X52070000Y-83820000D03*
%TO.N,unconnected-(J1-Pad19)*%
X50800000Y-85090000D03*
%TO.N,/A6*%
X52070000Y-85090000D03*
%TO.N,/RAM WE*%
X50800000Y-86360000D03*
%TO.N,/A5*%
X52070000Y-86360000D03*
%TO.N,/D7*%
X50800000Y-87630000D03*
%TO.N,/A4*%
X52070000Y-87630000D03*
%TO.N,/D6*%
X50800000Y-88900000D03*
%TO.N,/A3*%
X52070000Y-88900000D03*
%TO.N,/D5*%
X50800000Y-90170000D03*
%TO.N,/A2*%
X52070000Y-90170000D03*
%TO.N,/D4*%
X50800000Y-91440000D03*
%TO.N,/A1*%
X52070000Y-91440000D03*
%TO.N,/D3*%
X50800000Y-92710000D03*
%TO.N,/A0*%
X52070000Y-92710000D03*
%TO.N,/D2*%
X50800000Y-93980000D03*
%TO.N,Net-(J1-Pad34)*%
X52070000Y-93980000D03*
%TO.N,/D1*%
X50800000Y-95250000D03*
%TO.N,unconnected-(J1-Pad36)*%
X52070000Y-95250000D03*
%TO.N,/D0*%
X50800000Y-96520000D03*
%TO.N,unconnected-(J1-Pad38)*%
X52070000Y-96520000D03*
%TO.N,Earth*%
X50800000Y-97790000D03*
%TO.N,unconnected-(J1-Pad40)*%
X52070000Y-97790000D03*
%TD*%
D14*
%TO.N,VCC*%
%TO.C,C1*%
X64770000Y-114300000D03*
%TO.N,Earth*%
X59770000Y-114300000D03*
%TD*%
D12*
%TO.N,Net-(R4-Pad1)*%
%TO.C,U3*%
X95245000Y-143500000D03*
D13*
%TO.N,Net-(R2-Pad1)*%
X97785000Y-143500000D03*
%TO.N,Net-(U1-Pad24)*%
X100325000Y-143500000D03*
%TO.N,N/C*%
X102865000Y-143500000D03*
X105405000Y-143500000D03*
X107945000Y-143500000D03*
%TO.N,Earth*%
X110485000Y-143500000D03*
%TO.N,Net-(U1-Pad29)*%
X110485000Y-135880000D03*
%TO.N,/RAM WE*%
X107945000Y-135880000D03*
%TO.N,Net-(U3-Pad10)*%
X105405000Y-135880000D03*
X102865000Y-135880000D03*
%TO.N,Net-(R4-Pad1)*%
X100325000Y-135880000D03*
%TO.N,Net-(R3-Pad1)*%
X97785000Y-135880000D03*
%TO.N,VCC*%
X95245000Y-135880000D03*
%TD*%
D14*
%TO.N,VCC*%
%TO.C,C2*%
X128270000Y-77430000D03*
%TO.N,Earth*%
X128270000Y-72430000D03*
%TD*%
D12*
%TO.N,/A11*%
%TO.C,U0*%
X68580000Y-73660000D03*
D13*
%TO.N,/A12*%
X68580000Y-76200000D03*
%TO.N,/A13*%
X68580000Y-78740000D03*
%TO.N,/A14*%
X68580000Y-81280000D03*
%TO.N,Net-(J1-Pad34)*%
X68580000Y-83820000D03*
%TO.N,Net-(U0-Pad6)*%
X68580000Y-86360000D03*
%TO.N,/D4*%
X68580000Y-88900000D03*
%TO.N,/D3*%
X68580000Y-91440000D03*
%TO.N,/D5*%
X68580000Y-93980000D03*
%TO.N,/D6*%
X68580000Y-96520000D03*
%TO.N,VCC*%
X68580000Y-99060000D03*
%TO.N,/D2*%
X68580000Y-101600000D03*
%TO.N,/D7*%
X68580000Y-104140000D03*
%TO.N,/D0*%
X68580000Y-106680000D03*
%TO.N,/D1*%
X68580000Y-109220000D03*
%TO.N,unconnected-(U0-Pad16)*%
X68580000Y-111760000D03*
%TO.N,VCC*%
X68580000Y-114300000D03*
%TO.N,unconnected-(U0-Pad18)*%
X68580000Y-116840000D03*
%TO.N,Net-(R3-Pad1)*%
X68580000Y-119380000D03*
%TO.N,unconnected-(U0-Pad20)*%
X68580000Y-121920000D03*
%TO.N,Net-(R2-Pad1)*%
X83820000Y-121920000D03*
%TO.N,Net-(R4-Pad1)*%
X83820000Y-119380000D03*
%TO.N,unconnected-(U0-Pad23)*%
X83820000Y-116840000D03*
%TO.N,VCC*%
X83820000Y-114300000D03*
X83820000Y-111760000D03*
%TO.N,Net-(R1-Pad2)*%
X83820000Y-109220000D03*
%TO.N,unconnected-(U0-Pad27)*%
X83820000Y-106680000D03*
%TO.N,unconnected-(U0-Pad28)*%
X83820000Y-104140000D03*
%TO.N,Earth*%
X83820000Y-101600000D03*
%TO.N,/A0*%
X83820000Y-99060000D03*
%TO.N,/A1*%
X83820000Y-96520000D03*
%TO.N,/A2*%
X83820000Y-93980000D03*
%TO.N,/A3*%
X83820000Y-91440000D03*
%TO.N,/A4*%
X83820000Y-88900000D03*
%TO.N,/A5*%
X83820000Y-86360000D03*
%TO.N,/A6*%
X83820000Y-83820000D03*
%TO.N,/A7*%
X83820000Y-81280000D03*
%TO.N,/A8*%
X83820000Y-78740000D03*
%TO.N,/A9*%
X83820000Y-76200000D03*
%TO.N,/A10*%
X83820000Y-73660000D03*
%TD*%
D12*
%TO.N,unconnected-(U2-Pad1)*%
%TO.C,U2*%
X139700000Y-73660000D03*
D13*
%TO.N,VCC*%
X139700000Y-76200000D03*
X139700000Y-78740000D03*
%TO.N,/A12*%
X139700000Y-81280000D03*
%TO.N,/A7*%
X139700000Y-83820000D03*
%TO.N,/A6*%
X139700000Y-86360000D03*
%TO.N,/A5*%
X139700000Y-88900000D03*
%TO.N,/A4*%
X139700000Y-91440000D03*
%TO.N,/A3*%
X139700000Y-93980000D03*
%TO.N,/A2*%
X139700000Y-96520000D03*
%TO.N,/A1*%
X139700000Y-99060000D03*
%TO.N,/A0*%
X139700000Y-101600000D03*
%TO.N,/D0*%
X139700000Y-104140000D03*
%TO.N,/D1*%
X139700000Y-106680000D03*
%TO.N,/D2*%
X139700000Y-109220000D03*
%TO.N,Earth*%
X139700000Y-111760000D03*
%TO.N,/D3*%
X154940000Y-111760000D03*
%TO.N,/D4*%
X154940000Y-109220000D03*
%TO.N,/D5*%
X154940000Y-106680000D03*
%TO.N,/D6*%
X154940000Y-104140000D03*
%TO.N,/D7*%
X154940000Y-101600000D03*
%TO.N,Net-(J1-Pad34)*%
X154940000Y-99060000D03*
%TO.N,/A10*%
X154940000Y-96520000D03*
%TO.N,Net-(U1-Pad24)*%
X154940000Y-93980000D03*
%TO.N,/A11*%
X154940000Y-91440000D03*
%TO.N,/A9*%
X154940000Y-88900000D03*
%TO.N,/A8*%
X154940000Y-86360000D03*
%TO.N,/A13*%
X154940000Y-83820000D03*
%TO.N,/A14*%
X154940000Y-81280000D03*
%TO.N,unconnected-(U2-Pad30)*%
X154940000Y-78740000D03*
%TO.N,/ROM WE*%
X154940000Y-76200000D03*
%TO.N,VCC*%
X154940000Y-73660000D03*
%TD*%
D14*
%TO.N,VCC*%
%TO.C,C3*%
X132080000Y-77430000D03*
%TO.N,Earth*%
X132080000Y-72430000D03*
%TD*%
D10*
%TO.N,VCC*%
%TO.C,R1*%
X54610000Y-115570000D03*
D11*
%TO.N,Net-(R1-Pad2)*%
X49530000Y-115570000D03*
%TD*%
D10*
%TO.N,Net-(R3-Pad1)*%
%TO.C,R3*%
X97790000Y-132080000D03*
D11*
%TO.N,Earth*%
X97790000Y-127000000D03*
%TD*%
D19*
%TO.N,/D7*%
X84296144Y-112909511D02*
X84795663Y-113409030D01*
X68580000Y-104140000D02*
X77349511Y-112909511D01*
X48031442Y-98342115D02*
X48031441Y-90398559D01*
X121920000Y-104140000D02*
X119380000Y-101600000D01*
X68580000Y-104140000D02*
X55880000Y-104140000D01*
X50518846Y-100829519D02*
X48031442Y-98342115D01*
X121920000Y-111552082D02*
X121920000Y-104140000D01*
X84795663Y-113409030D02*
X120063052Y-113409030D01*
X55880000Y-104140000D02*
X52569520Y-100829520D01*
X52569520Y-100829520D02*
X50518846Y-100829519D01*
X120063052Y-113409030D02*
X121920000Y-111552082D01*
X48031441Y-90398559D02*
X50800000Y-87630000D01*
X77349511Y-112909511D02*
X84296144Y-112909511D01*
%TO.N,/D6*%
X48530961Y-91169039D02*
X50800000Y-88900000D01*
X113030000Y-97790000D02*
X119380000Y-104140000D01*
X48530961Y-98135207D02*
X48530961Y-91169039D01*
X64770000Y-100330000D02*
X50725755Y-100330000D01*
X68580000Y-96520000D02*
X64770000Y-100330000D01*
X95250000Y-97790000D02*
X113030000Y-97790000D01*
X50725755Y-100330000D02*
X48530961Y-98135207D01*
%TO.N,/D5*%
X82670489Y-108070489D02*
X113150489Y-108070489D01*
X120650000Y-112115655D02*
X120650000Y-107950000D01*
X68580000Y-93980000D02*
X62729520Y-99830480D01*
X50932662Y-99830480D02*
X49030481Y-97928299D01*
X62729520Y-99830480D02*
X50932662Y-99830480D01*
X119856144Y-112909511D02*
X120650000Y-112115655D01*
X68580000Y-93980000D02*
X82670489Y-108070489D01*
X113150489Y-108070489D02*
X117989511Y-112909511D01*
X49030480Y-91939520D02*
X50800000Y-90170000D01*
X120650000Y-107950000D02*
X119380000Y-106680000D01*
X117989511Y-112909511D02*
X119856144Y-112909511D01*
X49030481Y-97928299D02*
X49030480Y-91939520D01*
%TO.N,/D4*%
X113150489Y-102990489D02*
X119380000Y-109220000D01*
X51139569Y-99330960D02*
X49530000Y-97721391D01*
X49530000Y-97721391D02*
X49530000Y-92710000D01*
X58149040Y-99330960D02*
X51139569Y-99330960D01*
X82670489Y-102990489D02*
X113150489Y-102990489D01*
X68580000Y-88900000D02*
X58149040Y-99330960D01*
X68580000Y-88900000D02*
X82670489Y-102990489D01*
X49530000Y-92710000D02*
X50800000Y-91440000D01*
%TO.N,/D3*%
X113150489Y-105530489D02*
X119380000Y-111760000D01*
X68580000Y-91440000D02*
X82670489Y-105530489D01*
X82670489Y-105530489D02*
X113150489Y-105530489D01*
%TO.N,/D2*%
X77470000Y-110490000D02*
X102870000Y-110490000D01*
X59690000Y-101600000D02*
X68580000Y-101600000D01*
X68580000Y-101600000D02*
X77470000Y-110490000D01*
X58420000Y-102870000D02*
X59690000Y-101600000D01*
X102870000Y-110490000D02*
X104140000Y-109220000D01*
%TO.N,/D1*%
X58420000Y-109220000D02*
X68580000Y-109220000D01*
X54610000Y-105410000D02*
X58420000Y-109220000D01*
%TO.N,/D0*%
X57150000Y-106680000D02*
X68580000Y-106680000D01*
X54610000Y-104140000D02*
X57150000Y-106680000D01*
%TO.N,/A14*%
X52070000Y-74930000D02*
X55880000Y-74930000D01*
X55880000Y-74930000D02*
X62230000Y-81280000D01*
%TO.N,/A13*%
X62230000Y-82550000D02*
X66040000Y-78740000D01*
X55880000Y-76200000D02*
X62230000Y-82550000D01*
X66040000Y-78740000D02*
X68580000Y-78740000D01*
X52070000Y-76200000D02*
X55880000Y-76200000D01*
%TO.N,/A12*%
X52070000Y-77470000D02*
X54610000Y-77470000D01*
X57150000Y-74930000D02*
X58420000Y-76200000D01*
X58420000Y-76200000D02*
X68580000Y-76200000D01*
%TO.N,/A11*%
X69850000Y-72390000D02*
X68580000Y-73660000D01*
X113030000Y-85090000D02*
X96875655Y-85090000D01*
X119380000Y-91440000D02*
X113030000Y-85090000D01*
X84175655Y-72390000D02*
X69850000Y-72390000D01*
X96875655Y-85090000D02*
X84175655Y-72390000D01*
%TO.N,/A10*%
X55109519Y-83049519D02*
X65184826Y-83049519D01*
X115690489Y-92830489D02*
X119380000Y-96520000D01*
X68224345Y-80010000D02*
X77470000Y-80010000D01*
X83820000Y-73660000D02*
X102990489Y-92830489D01*
X77470000Y-80010000D02*
X83820000Y-73660000D01*
X52070000Y-80010000D02*
X55109519Y-83049519D01*
X102990489Y-92830489D02*
X115690489Y-92830489D01*
X65184826Y-83049519D02*
X68224345Y-80010000D01*
%TO.N,/A9*%
X119380000Y-88900000D02*
X107950000Y-77470000D01*
%TO.N,VCC*%
X83820000Y-114300000D02*
X68580000Y-114300000D01*
%TO.N,Net-(J1-Pad34)*%
X138550489Y-97910489D02*
X153790489Y-97910489D01*
X58420000Y-93980000D02*
X68580000Y-83820000D01*
X52070000Y-93980000D02*
X58420000Y-93980000D01*
X119380000Y-78740000D02*
X138550489Y-97910489D01*
X153790489Y-97910489D02*
X154940000Y-99060000D01*
%TD*%
M02*
