%TF.GenerationSoftware,KiCad,Pcbnew,6.0.0*%
%TF.CreationDate,2022-01-05T13:28:49+01:00*%
%TF.ProjectId,glycon,676c7963-6f6e-42e6-9b69-6361645f7063,rev?*%
%TF.SameCoordinates,Original*%
%TF.FileFunction,Soldermask,Top*%
%TF.FilePolarity,Negative*%
%FSLAX46Y46*%
G04 Gerber Fmt 4.6, Leading zero omitted, Abs format (unit mm)*
G04 Created by KiCad (PCBNEW 6.0.0) date 2022-01-05 13:28:49*
%MOMM*%
%LPD*%
G01*
G04 APERTURE LIST*
%ADD10C,1.400000*%
%ADD11O,1.400000X1.400000*%
%ADD12R,1.600000X1.600000*%
%ADD13O,1.600000X1.600000*%
%ADD14C,1.600000*%
%ADD15C,2.000000*%
%ADD16C,4.000000*%
%ADD17R,1.000000X1.000000*%
%ADD18O,1.000000X1.000000*%
G04 APERTURE END LIST*
D10*
%TO.C,R2*%
X95250000Y-132080000D03*
D11*
X95250000Y-127000000D03*
%TD*%
D10*
%TO.C,R4*%
X100330000Y-132080000D03*
D11*
X100330000Y-127000000D03*
%TD*%
D12*
%TO.C,U1*%
X104140000Y-73660000D03*
D13*
X104140000Y-76200000D03*
X104140000Y-78740000D03*
X104140000Y-81280000D03*
X104140000Y-83820000D03*
X104140000Y-86360000D03*
X104140000Y-88900000D03*
X104140000Y-91440000D03*
X104140000Y-93980000D03*
X104140000Y-96520000D03*
X104140000Y-99060000D03*
X104140000Y-101600000D03*
X104140000Y-104140000D03*
X104140000Y-106680000D03*
X104140000Y-109220000D03*
X104140000Y-111760000D03*
X119380000Y-111760000D03*
X119380000Y-109220000D03*
X119380000Y-106680000D03*
X119380000Y-104140000D03*
X119380000Y-101600000D03*
X119380000Y-99060000D03*
X119380000Y-96520000D03*
X119380000Y-93980000D03*
X119380000Y-91440000D03*
X119380000Y-88900000D03*
X119380000Y-86360000D03*
X119380000Y-83820000D03*
X119380000Y-81280000D03*
X119380000Y-78740000D03*
X119380000Y-76200000D03*
X119380000Y-73660000D03*
%TD*%
D12*
%TO.C,X1*%
X69850000Y-142230000D03*
D14*
X85090000Y-142230000D03*
X85090000Y-134610000D03*
X69850000Y-134610000D03*
%TD*%
D15*
%TO.C,SW1*%
X50090000Y-120940000D03*
X56590000Y-120940000D03*
X56590000Y-125440000D03*
X50090000Y-125440000D03*
%TD*%
D12*
%TO.C,J2*%
X50362500Y-137180000D03*
D14*
X50362500Y-139680000D03*
X52362500Y-139680000D03*
X52362500Y-137180000D03*
D16*
X55222500Y-132430000D03*
X55222500Y-144430000D03*
%TD*%
D17*
%TO.C,J1*%
X50800000Y-73660000D03*
D18*
X52070000Y-73660000D03*
X50800000Y-74930000D03*
X52070000Y-74930000D03*
X50800000Y-76200000D03*
X52070000Y-76200000D03*
X50800000Y-77470000D03*
X52070000Y-77470000D03*
X50800000Y-78740000D03*
X52070000Y-78740000D03*
X50800000Y-80010000D03*
X52070000Y-80010000D03*
X50800000Y-81280000D03*
X52070000Y-81280000D03*
X50800000Y-82550000D03*
X52070000Y-82550000D03*
X50800000Y-83820000D03*
X52070000Y-83820000D03*
X50800000Y-85090000D03*
X52070000Y-85090000D03*
X50800000Y-86360000D03*
X52070000Y-86360000D03*
X50800000Y-87630000D03*
X52070000Y-87630000D03*
X50800000Y-88900000D03*
X52070000Y-88900000D03*
X50800000Y-90170000D03*
X52070000Y-90170000D03*
X50800000Y-91440000D03*
X52070000Y-91440000D03*
X50800000Y-92710000D03*
X52070000Y-92710000D03*
X50800000Y-93980000D03*
X52070000Y-93980000D03*
X50800000Y-95250000D03*
X52070000Y-95250000D03*
X50800000Y-96520000D03*
X52070000Y-96520000D03*
X50800000Y-97790000D03*
X52070000Y-97790000D03*
%TD*%
D14*
%TO.C,C1*%
X64770000Y-114300000D03*
X59770000Y-114300000D03*
%TD*%
D12*
%TO.C,U3*%
X95245000Y-143500000D03*
D13*
X97785000Y-143500000D03*
X100325000Y-143500000D03*
X102865000Y-143500000D03*
X105405000Y-143500000D03*
X107945000Y-143500000D03*
X110485000Y-143500000D03*
X110485000Y-135880000D03*
X107945000Y-135880000D03*
X105405000Y-135880000D03*
X102865000Y-135880000D03*
X100325000Y-135880000D03*
X97785000Y-135880000D03*
X95245000Y-135880000D03*
%TD*%
D14*
%TO.C,C2*%
X128270000Y-77430000D03*
X128270000Y-72430000D03*
%TD*%
D12*
%TO.C,U0*%
X68580000Y-73660000D03*
D13*
X68580000Y-76200000D03*
X68580000Y-78740000D03*
X68580000Y-81280000D03*
X68580000Y-83820000D03*
X68580000Y-86360000D03*
X68580000Y-88900000D03*
X68580000Y-91440000D03*
X68580000Y-93980000D03*
X68580000Y-96520000D03*
X68580000Y-99060000D03*
X68580000Y-101600000D03*
X68580000Y-104140000D03*
X68580000Y-106680000D03*
X68580000Y-109220000D03*
X68580000Y-111760000D03*
X68580000Y-114300000D03*
X68580000Y-116840000D03*
X68580000Y-119380000D03*
X68580000Y-121920000D03*
X83820000Y-121920000D03*
X83820000Y-119380000D03*
X83820000Y-116840000D03*
X83820000Y-114300000D03*
X83820000Y-111760000D03*
X83820000Y-109220000D03*
X83820000Y-106680000D03*
X83820000Y-104140000D03*
X83820000Y-101600000D03*
X83820000Y-99060000D03*
X83820000Y-96520000D03*
X83820000Y-93980000D03*
X83820000Y-91440000D03*
X83820000Y-88900000D03*
X83820000Y-86360000D03*
X83820000Y-83820000D03*
X83820000Y-81280000D03*
X83820000Y-78740000D03*
X83820000Y-76200000D03*
X83820000Y-73660000D03*
%TD*%
D12*
%TO.C,U2*%
X139700000Y-73660000D03*
D13*
X139700000Y-76200000D03*
X139700000Y-78740000D03*
X139700000Y-81280000D03*
X139700000Y-83820000D03*
X139700000Y-86360000D03*
X139700000Y-88900000D03*
X139700000Y-91440000D03*
X139700000Y-93980000D03*
X139700000Y-96520000D03*
X139700000Y-99060000D03*
X139700000Y-101600000D03*
X139700000Y-104140000D03*
X139700000Y-106680000D03*
X139700000Y-109220000D03*
X139700000Y-111760000D03*
X154940000Y-111760000D03*
X154940000Y-109220000D03*
X154940000Y-106680000D03*
X154940000Y-104140000D03*
X154940000Y-101600000D03*
X154940000Y-99060000D03*
X154940000Y-96520000D03*
X154940000Y-93980000D03*
X154940000Y-91440000D03*
X154940000Y-88900000D03*
X154940000Y-86360000D03*
X154940000Y-83820000D03*
X154940000Y-81280000D03*
X154940000Y-78740000D03*
X154940000Y-76200000D03*
X154940000Y-73660000D03*
%TD*%
D14*
%TO.C,C3*%
X132080000Y-77430000D03*
X132080000Y-72430000D03*
%TD*%
D10*
%TO.C,R1*%
X54610000Y-115570000D03*
D11*
X49530000Y-115570000D03*
%TD*%
D10*
%TO.C,R3*%
X97790000Y-132080000D03*
D11*
X97790000Y-127000000D03*
%TD*%
M02*
