%TF.GenerationSoftware,KiCad,Pcbnew,6.0.0*%
%TF.CreationDate,2022-01-05T13:28:49+01:00*%
%TF.ProjectId,glycon,676c7963-6f6e-42e6-9b69-6361645f7063,rev?*%
%TF.SameCoordinates,Original*%
%TF.FileFunction,Legend,Top*%
%TF.FilePolarity,Positive*%
%FSLAX46Y46*%
G04 Gerber Fmt 4.6, Leading zero omitted, Abs format (unit mm)*
G04 Created by KiCad (PCBNEW 6.0.0) date 2022-01-05 13:28:49*
%MOMM*%
%LPD*%
G01*
G04 APERTURE LIST*
%ADD10C,0.150000*%
%ADD11C,0.120000*%
G04 APERTURE END LIST*
D10*
%TO.C,R2*%
X95702380Y-124626666D02*
X95226190Y-124960000D01*
X95702380Y-125198095D02*
X94702380Y-125198095D01*
X94702380Y-124817142D01*
X94750000Y-124721904D01*
X94797619Y-124674285D01*
X94892857Y-124626666D01*
X95035714Y-124626666D01*
X95130952Y-124674285D01*
X95178571Y-124721904D01*
X95226190Y-124817142D01*
X95226190Y-125198095D01*
X94797619Y-124245714D02*
X94750000Y-124198095D01*
X94702380Y-124102857D01*
X94702380Y-123864761D01*
X94750000Y-123769523D01*
X94797619Y-123721904D01*
X94892857Y-123674285D01*
X94988095Y-123674285D01*
X95130952Y-123721904D01*
X95702380Y-124293333D01*
X95702380Y-123674285D01*
%TO.C,R4*%
X100782380Y-124626666D02*
X100306190Y-124960000D01*
X100782380Y-125198095D02*
X99782380Y-125198095D01*
X99782380Y-124817142D01*
X99830000Y-124721904D01*
X99877619Y-124674285D01*
X99972857Y-124626666D01*
X100115714Y-124626666D01*
X100210952Y-124674285D01*
X100258571Y-124721904D01*
X100306190Y-124817142D01*
X100306190Y-125198095D01*
X100115714Y-123769523D02*
X100782380Y-123769523D01*
X99734761Y-124007619D02*
X100449047Y-124245714D01*
X100449047Y-123626666D01*
%TO.C,U1*%
X110998095Y-70782380D02*
X110998095Y-71591904D01*
X111045714Y-71687142D01*
X111093333Y-71734761D01*
X111188571Y-71782380D01*
X111379047Y-71782380D01*
X111474285Y-71734761D01*
X111521904Y-71687142D01*
X111569523Y-71591904D01*
X111569523Y-70782380D01*
X112569523Y-71782380D02*
X111998095Y-71782380D01*
X112283809Y-71782380D02*
X112283809Y-70782380D01*
X112188571Y-70925238D01*
X112093333Y-71020476D01*
X111998095Y-71068095D01*
%TO.C,X1*%
X76660476Y-130422380D02*
X77327142Y-131422380D01*
X77327142Y-130422380D02*
X76660476Y-131422380D01*
X78231904Y-131422380D02*
X77660476Y-131422380D01*
X77946190Y-131422380D02*
X77946190Y-130422380D01*
X77850952Y-130565238D01*
X77755714Y-130660476D01*
X77660476Y-130708095D01*
%TO.C,SW1*%
X52006666Y-119344761D02*
X52149523Y-119392380D01*
X52387619Y-119392380D01*
X52482857Y-119344761D01*
X52530476Y-119297142D01*
X52578095Y-119201904D01*
X52578095Y-119106666D01*
X52530476Y-119011428D01*
X52482857Y-118963809D01*
X52387619Y-118916190D01*
X52197142Y-118868571D01*
X52101904Y-118820952D01*
X52054285Y-118773333D01*
X52006666Y-118678095D01*
X52006666Y-118582857D01*
X52054285Y-118487619D01*
X52101904Y-118440000D01*
X52197142Y-118392380D01*
X52435238Y-118392380D01*
X52578095Y-118440000D01*
X52911428Y-118392380D02*
X53149523Y-119392380D01*
X53340000Y-118678095D01*
X53530476Y-119392380D01*
X53768571Y-118392380D01*
X54673333Y-119392380D02*
X54101904Y-119392380D01*
X54387619Y-119392380D02*
X54387619Y-118392380D01*
X54292380Y-118535238D01*
X54197142Y-118630476D01*
X54101904Y-118678095D01*
%TO.C,J2*%
X57529166Y-128982380D02*
X57529166Y-129696666D01*
X57481547Y-129839523D01*
X57386309Y-129934761D01*
X57243452Y-129982380D01*
X57148214Y-129982380D01*
X57957738Y-129077619D02*
X58005357Y-129030000D01*
X58100595Y-128982380D01*
X58338690Y-128982380D01*
X58433928Y-129030000D01*
X58481547Y-129077619D01*
X58529166Y-129172857D01*
X58529166Y-129268095D01*
X58481547Y-129410952D01*
X57910119Y-129982380D01*
X58529166Y-129982380D01*
%TO.C,J1*%
X51101666Y-71417380D02*
X51101666Y-72131666D01*
X51054047Y-72274523D01*
X50958809Y-72369761D01*
X50815952Y-72417380D01*
X50720714Y-72417380D01*
X52101666Y-72417380D02*
X51530238Y-72417380D01*
X51815952Y-72417380D02*
X51815952Y-71417380D01*
X51720714Y-71560238D01*
X51625476Y-71655476D01*
X51530238Y-71703095D01*
%TO.C,C1*%
X62103333Y-117157142D02*
X62055714Y-117204761D01*
X61912857Y-117252380D01*
X61817619Y-117252380D01*
X61674761Y-117204761D01*
X61579523Y-117109523D01*
X61531904Y-117014285D01*
X61484285Y-116823809D01*
X61484285Y-116680952D01*
X61531904Y-116490476D01*
X61579523Y-116395238D01*
X61674761Y-116300000D01*
X61817619Y-116252380D01*
X61912857Y-116252380D01*
X62055714Y-116300000D01*
X62103333Y-116347619D01*
X63055714Y-117252380D02*
X62484285Y-117252380D01*
X62770000Y-117252380D02*
X62770000Y-116252380D01*
X62674761Y-116395238D01*
X62579523Y-116490476D01*
X62484285Y-116538095D01*
%TO.C,U3*%
X92367380Y-140451904D02*
X93176904Y-140451904D01*
X93272142Y-140404285D01*
X93319761Y-140356666D01*
X93367380Y-140261428D01*
X93367380Y-140070952D01*
X93319761Y-139975714D01*
X93272142Y-139928095D01*
X93176904Y-139880476D01*
X92367380Y-139880476D01*
X92367380Y-139499523D02*
X92367380Y-138880476D01*
X92748333Y-139213809D01*
X92748333Y-139070952D01*
X92795952Y-138975714D01*
X92843571Y-138928095D01*
X92938809Y-138880476D01*
X93176904Y-138880476D01*
X93272142Y-138928095D01*
X93319761Y-138975714D01*
X93367380Y-139070952D01*
X93367380Y-139356666D01*
X93319761Y-139451904D01*
X93272142Y-139499523D01*
%TO.C,C2*%
X126127142Y-75096666D02*
X126174761Y-75144285D01*
X126222380Y-75287142D01*
X126222380Y-75382380D01*
X126174761Y-75525238D01*
X126079523Y-75620476D01*
X125984285Y-75668095D01*
X125793809Y-75715714D01*
X125650952Y-75715714D01*
X125460476Y-75668095D01*
X125365238Y-75620476D01*
X125270000Y-75525238D01*
X125222380Y-75382380D01*
X125222380Y-75287142D01*
X125270000Y-75144285D01*
X125317619Y-75096666D01*
X125317619Y-74715714D02*
X125270000Y-74668095D01*
X125222380Y-74572857D01*
X125222380Y-74334761D01*
X125270000Y-74239523D01*
X125317619Y-74191904D01*
X125412857Y-74144285D01*
X125508095Y-74144285D01*
X125650952Y-74191904D01*
X126222380Y-74763333D01*
X126222380Y-74144285D01*
%TO.C,U0*%
X75438095Y-70782380D02*
X75438095Y-71591904D01*
X75485714Y-71687142D01*
X75533333Y-71734761D01*
X75628571Y-71782380D01*
X75819047Y-71782380D01*
X75914285Y-71734761D01*
X75961904Y-71687142D01*
X76009523Y-71591904D01*
X76009523Y-70782380D01*
X76676190Y-70782380D02*
X76771428Y-70782380D01*
X76866666Y-70830000D01*
X76914285Y-70877619D01*
X76961904Y-70972857D01*
X77009523Y-71163333D01*
X77009523Y-71401428D01*
X76961904Y-71591904D01*
X76914285Y-71687142D01*
X76866666Y-71734761D01*
X76771428Y-71782380D01*
X76676190Y-71782380D01*
X76580952Y-71734761D01*
X76533333Y-71687142D01*
X76485714Y-71591904D01*
X76438095Y-71401428D01*
X76438095Y-71163333D01*
X76485714Y-70972857D01*
X76533333Y-70877619D01*
X76580952Y-70830000D01*
X76676190Y-70782380D01*
%TO.C,U2*%
X146558095Y-70782380D02*
X146558095Y-71591904D01*
X146605714Y-71687142D01*
X146653333Y-71734761D01*
X146748571Y-71782380D01*
X146939047Y-71782380D01*
X147034285Y-71734761D01*
X147081904Y-71687142D01*
X147129523Y-71591904D01*
X147129523Y-70782380D01*
X147558095Y-70877619D02*
X147605714Y-70830000D01*
X147700952Y-70782380D01*
X147939047Y-70782380D01*
X148034285Y-70830000D01*
X148081904Y-70877619D01*
X148129523Y-70972857D01*
X148129523Y-71068095D01*
X148081904Y-71210952D01*
X147510476Y-71782380D01*
X148129523Y-71782380D01*
%TO.C,C3*%
X129937142Y-75096666D02*
X129984761Y-75144285D01*
X130032380Y-75287142D01*
X130032380Y-75382380D01*
X129984761Y-75525238D01*
X129889523Y-75620476D01*
X129794285Y-75668095D01*
X129603809Y-75715714D01*
X129460952Y-75715714D01*
X129270476Y-75668095D01*
X129175238Y-75620476D01*
X129080000Y-75525238D01*
X129032380Y-75382380D01*
X129032380Y-75287142D01*
X129080000Y-75144285D01*
X129127619Y-75096666D01*
X129032380Y-74763333D02*
X129032380Y-74144285D01*
X129413333Y-74477619D01*
X129413333Y-74334761D01*
X129460952Y-74239523D01*
X129508571Y-74191904D01*
X129603809Y-74144285D01*
X129841904Y-74144285D01*
X129937142Y-74191904D01*
X129984761Y-74239523D01*
X130032380Y-74334761D01*
X130032380Y-74620476D01*
X129984761Y-74715714D01*
X129937142Y-74763333D01*
%TO.C,R1*%
X51903333Y-117942380D02*
X51570000Y-117466190D01*
X51331904Y-117942380D02*
X51331904Y-116942380D01*
X51712857Y-116942380D01*
X51808095Y-116990000D01*
X51855714Y-117037619D01*
X51903333Y-117132857D01*
X51903333Y-117275714D01*
X51855714Y-117370952D01*
X51808095Y-117418571D01*
X51712857Y-117466190D01*
X51331904Y-117466190D01*
X52855714Y-117942380D02*
X52284285Y-117942380D01*
X52570000Y-117942380D02*
X52570000Y-116942380D01*
X52474761Y-117085238D01*
X52379523Y-117180476D01*
X52284285Y-117228095D01*
%TO.C,R3*%
X98242380Y-124626666D02*
X97766190Y-124960000D01*
X98242380Y-125198095D02*
X97242380Y-125198095D01*
X97242380Y-124817142D01*
X97290000Y-124721904D01*
X97337619Y-124674285D01*
X97432857Y-124626666D01*
X97575714Y-124626666D01*
X97670952Y-124674285D01*
X97718571Y-124721904D01*
X97766190Y-124817142D01*
X97766190Y-125198095D01*
X97242380Y-124293333D02*
X97242380Y-123674285D01*
X97623333Y-124007619D01*
X97623333Y-123864761D01*
X97670952Y-123769523D01*
X97718571Y-123721904D01*
X97813809Y-123674285D01*
X98051904Y-123674285D01*
X98147142Y-123721904D01*
X98194761Y-123769523D01*
X98242380Y-123864761D01*
X98242380Y-124150476D01*
X98194761Y-124245714D01*
X98147142Y-124293333D01*
D11*
%TO.C,R2*%
X94330000Y-131460000D02*
X94330000Y-127620000D01*
X96170000Y-131460000D02*
X96170000Y-127620000D01*
%TO.C,R4*%
X101250000Y-131460000D02*
X101250000Y-127620000D01*
X99410000Y-131460000D02*
X99410000Y-127620000D01*
%TO.C,U1*%
X105300000Y-113090000D02*
X118220000Y-113090000D01*
X120710000Y-72270000D02*
X102810000Y-72270000D01*
X110760000Y-72330000D02*
X105300000Y-72330000D01*
X118220000Y-72330000D02*
X112760000Y-72330000D01*
X118220000Y-113090000D02*
X118220000Y-72330000D01*
X102810000Y-72270000D02*
X102810000Y-113150000D01*
X102810000Y-113150000D02*
X120710000Y-113150000D01*
X105300000Y-72330000D02*
X105300000Y-113090000D01*
X120710000Y-113150000D02*
X120710000Y-72270000D01*
X110760000Y-72330000D02*
G75*
G03*
X112760000Y-72330000I1000000J0D01*
G01*
%TO.C,X1*%
X87170000Y-131970000D02*
X67770000Y-131970000D01*
X87920000Y-144120000D02*
X87920000Y-132720000D01*
X67020000Y-144870000D02*
X87170000Y-144870000D01*
X67020000Y-132720000D02*
X67020000Y-144870000D01*
X67770000Y-131970000D02*
G75*
G03*
X67020000Y-132720000I0J-750000D01*
G01*
X87170000Y-144870000D02*
G75*
G03*
X87920000Y-144120000I0J750000D01*
G01*
X87920000Y-132720000D02*
G75*
G03*
X87170000Y-131970000I-750000J0D01*
G01*
%TO.C,SW1*%
X55590000Y-119940000D02*
X51090000Y-119940000D01*
X56840000Y-123940000D02*
X56840000Y-122440000D01*
X49840000Y-122440000D02*
X49840000Y-123940000D01*
X51090000Y-126440000D02*
X55590000Y-126440000D01*
%TO.C,J2*%
X49012500Y-144540000D02*
X49012500Y-132320000D01*
X48312500Y-137680000D02*
X48812500Y-137180000D01*
X65632500Y-144540000D02*
X65632500Y-132320000D01*
X48312500Y-136680000D02*
X48312500Y-137680000D01*
X49012500Y-144540000D02*
X52762500Y-144540000D01*
X49012500Y-132320000D02*
X52762500Y-132320000D01*
X65632500Y-132320000D02*
X57662500Y-132320000D01*
X48812500Y-137180000D02*
X48312500Y-136680000D01*
X65632500Y-144540000D02*
X57662500Y-144540000D01*
%TO.C,J1*%
X52377530Y-98485000D02*
X53200000Y-98485000D01*
X51107530Y-98485000D02*
X51762470Y-98485000D01*
X51560000Y-72965000D02*
X51762470Y-72965000D01*
X51363471Y-74420000D02*
X51506529Y-74420000D01*
X49670000Y-74420000D02*
X50236529Y-74420000D01*
X49670000Y-98485000D02*
X50492470Y-98485000D01*
X49670000Y-72900000D02*
X50800000Y-72900000D01*
X53200000Y-72965000D02*
X53200000Y-98485000D01*
X51560000Y-74366529D02*
X51560000Y-74223471D01*
X52377530Y-72965000D02*
X53200000Y-72965000D01*
X49670000Y-74420000D02*
X49670000Y-98485000D01*
X51560000Y-73096529D02*
X51560000Y-72965000D01*
X49670000Y-73660000D02*
X49670000Y-72900000D01*
%TO.C,C1*%
X59800000Y-115670000D02*
X59800000Y-115355000D01*
X64740000Y-115670000D02*
X64740000Y-115355000D01*
X64740000Y-113245000D02*
X64740000Y-112930000D01*
X59800000Y-113245000D02*
X59800000Y-112930000D01*
X64740000Y-115670000D02*
X59800000Y-115670000D01*
X64740000Y-112930000D02*
X59800000Y-112930000D01*
%TO.C,U3*%
X111875000Y-144830000D02*
X111875000Y-134550000D01*
X111875000Y-134550000D02*
X93855000Y-134550000D01*
X111815000Y-142340000D02*
X111815000Y-137040000D01*
X93855000Y-134550000D02*
X93855000Y-144830000D01*
X93855000Y-144830000D02*
X111875000Y-144830000D01*
X111815000Y-137040000D02*
X93915000Y-137040000D01*
X93915000Y-142340000D02*
X111815000Y-142340000D01*
X93915000Y-140690000D02*
X93915000Y-142340000D01*
X93915000Y-137040000D02*
X93915000Y-138690000D01*
X93915000Y-140690000D02*
G75*
G03*
X93915000Y-138690000I0J1000000D01*
G01*
%TO.C,C2*%
X129640000Y-77400000D02*
X129640000Y-72460000D01*
X126900000Y-77400000D02*
X126900000Y-72460000D01*
X129325000Y-72460000D02*
X129640000Y-72460000D01*
X126900000Y-77400000D02*
X127215000Y-77400000D01*
X129325000Y-77400000D02*
X129640000Y-77400000D01*
X126900000Y-72460000D02*
X127215000Y-72460000D01*
%TO.C,U0*%
X67250000Y-72270000D02*
X67250000Y-123310000D01*
X69740000Y-72330000D02*
X69740000Y-123250000D01*
X82660000Y-72330000D02*
X77200000Y-72330000D01*
X85150000Y-72270000D02*
X67250000Y-72270000D01*
X67250000Y-123310000D02*
X85150000Y-123310000D01*
X75200000Y-72330000D02*
X69740000Y-72330000D01*
X85150000Y-123310000D02*
X85150000Y-72270000D01*
X82660000Y-123250000D02*
X82660000Y-72330000D01*
X69740000Y-123250000D02*
X82660000Y-123250000D01*
X75200000Y-72330000D02*
G75*
G03*
X77200000Y-72330000I1000000J0D01*
G01*
%TO.C,U2*%
X138370000Y-72270000D02*
X138370000Y-113150000D01*
X153780000Y-113090000D02*
X153780000Y-72330000D01*
X153780000Y-72330000D02*
X148320000Y-72330000D01*
X138370000Y-113150000D02*
X156270000Y-113150000D01*
X156270000Y-113150000D02*
X156270000Y-72270000D01*
X156270000Y-72270000D02*
X138370000Y-72270000D01*
X140860000Y-113090000D02*
X153780000Y-113090000D01*
X140860000Y-72330000D02*
X140860000Y-113090000D01*
X146320000Y-72330000D02*
X140860000Y-72330000D01*
X146320000Y-72330000D02*
G75*
G03*
X148320000Y-72330000I1000000J0D01*
G01*
%TO.C,C3*%
X130710000Y-77400000D02*
X130710000Y-72460000D01*
X130710000Y-77400000D02*
X131025000Y-77400000D01*
X133135000Y-77400000D02*
X133450000Y-77400000D01*
X130710000Y-72460000D02*
X131025000Y-72460000D01*
X133450000Y-77400000D02*
X133450000Y-72460000D01*
X133135000Y-72460000D02*
X133450000Y-72460000D01*
%TO.C,R1*%
X53990000Y-114650000D02*
X50150000Y-114650000D01*
X53990000Y-116490000D02*
X50150000Y-116490000D01*
%TO.C,R3*%
X98710000Y-131460000D02*
X98710000Y-127620000D01*
X96870000Y-131460000D02*
X96870000Y-127620000D01*
%TD*%
M02*
